<?xml version="1.0" encoding="utf-8"?>
<!-- Generator: Adobe Illustrator 15.0.0, SVG Export Plug-In . SVG Version: 6.00 Build 0)  -->
<!DOCTYPE svg PUBLIC "-//W3C//DTD SVG 1.1//EN" "http://www.w3.org/Graphics/SVG/1.1/DTD/svg11.dtd">
<svg version="1.1" id="Layer_1" xmlns="http://www.w3.org/2000/svg" xmlns:xlink="http://www.w3.org/1999/xlink" x="0px" y="0px"
	 width="1908.043px" height="659px" viewBox="0 0 1908.043 659" enable-background="new 0 0 1908.043 659" xml:space="preserve">
<g>
	<path fill-rule="evenodd" clip-rule="evenodd" fill="#152752" d="M844.044,9c102.463-6.057,184.791,35.495,238,86
		c52.307,49.649,99.727,122.789,104,220c4.745,107.936-34.654,181.157-86,238c-49.301,54.578-123.129,99.741-220,104
		c-102.994,4.528-180.386-34.304-238-86c-55.929-50.184-99.812-121.382-105-219c-5.579-104.955,36.026-185.934,85-239
		c36.774-39.847,87.383-75.001,150-93C794.68,13.494,820.755,10.377,844.044,9z M630.044,112c-48.596,52.869-93.391,126.817-89,231
		c4.003,94.989,44.556,168.696,99,221c52.399,50.339,129.423,92.842,232,89c93.687-3.509,169.001-44.873,221-99
		c50.617-52.688,93.076-129.027,89-231c-3.871-96.822-45.484-171.611-99-221c-52.436-48.392-130.752-93.821-232-89
		C750.359,17.794,680.423,57.191,630.044,112z"/>
	<path fill-rule="evenodd" clip-rule="evenodd" fill="#152752" d="M857.044,49c7.146,3.52,24.286-2.953,28,4
		c-0.35,4.632-6.452,0.535-9,1c-2.328,9.672-0.337,23.663-1,35c-3.333,0-6.667,0-10,0c1.388-10.612,1.888-22.112,2-34
		c-2.203-2.779-7.126,0.14-10,0C857.044,53,857.044,51,857.044,49z"/>
	<path fill-rule="evenodd" clip-rule="evenodd" fill="#152752" d="M839.044,50c11.215,8.118,12.16,26.506,21,37
		c-2.484,1.516-6.069,1.931-10,2c-1.188-3.813-2.658-7.342-4-11c-4.564-0.564-6.228,1.772-11,1c-4.391,2.609,0.047,14.047-9,12
		C830.445,77.401,832.656,61.612,839.044,50z M836.044,75c3.499,0.166,6.401-0.266,8-2c-3.396-1.604-1.621-8.379-6-9
		C838.038,68.327,835.723,70.345,836.044,75z"/>
	<path fill-rule="evenodd" clip-rule="evenodd" fill="#152752" d="M820.044,52c3.15-0.483,0.749,4.584,3,5
		c-1.115,2.552-7.735-0.401-9,2c0.597,12.736,3.909,22.758,6,34c-3.499-0.166-6.401,0.266-8,2c-3.318-10.349-4.965-22.369-7-34
		c-4.225-0.225-6.458,1.542-10,2c0.723-3.056-1.022-3.644-1-6C803.785,56.408,812.538,54.828,820.044,52z"/>
	<path fill-rule="evenodd" clip-rule="evenodd" fill="#152752" d="M907.044,52c5.721,2.279,12.752,3.248,20,4
		c0.022,2.356-1.723,2.944-1,6c-3.228-1.439-7.419-1.914-11-3c-1.76,2.907-2.279,7.055-3,11c2.965,1.702,8.233,1.1,12,2
		c0.409,2.409-1.826,2.174-1,5c-4.655,0.321-6.673-1.994-11-2c-2.224,3.109-2.705,7.962-3,13c2.979,3.021,13.191-1.191,11,7
		c-7.115-0.885-12.79-3.21-21-3C901.806,78.762,904.37,65.326,907.044,52z"/>
	<path fill-rule="evenodd" clip-rule="evenodd" fill="#152752" d="M932.044,57c8.074,3.592,17.128,6.205,27,8
		c0.409,2.409-1.826,2.174-1,5c-4.229,0.229-6.425-1.575-9-3c-4.136,10.197-7.804,20.863-10,33c-4.096,0.43-6.407-0.927-9-2
		c2.878-11.122,5.983-22.017,10-32c-1.006-2.994-6.026-1.974-9-3C930.319,59.941,932.769,60.059,932.044,57z"/>
	<path fill-rule="evenodd" clip-rule="evenodd" fill="#152752" d="M790.044,59c0.083,1.583-0.481,3.814,1,4
		c-1.835,3.498-8.348,2.318-12,4c1.078,3.588,2.516,6.817,3,11c4.291-0.709,8.368-1.632,11-4c1.434,1.233,1.895,3.439,2,6
		c-4.327,0.006-6.345,2.321-11,2c0.661,5.339,2.29,9.71,4,14c4.1-1.233,6.972-3.695,12-4c0.083,1.583-0.481,3.814,1,4
		c-5.122,3.878-14.092,3.908-20,7c-3.822-12.511-6.935-25.731-12-37C775.777,63.399,782.559,60.848,790.044,59z"/>
	<path fill-rule="evenodd" clip-rule="evenodd" fill="#152752" d="M894.044,66c0.649,3.649-0.674,5.326-2,7
		c-3.973,0.64-5.397-1.27-7-3C884.668,64.174,890.707,62.74,894.044,66z"/>
	<path fill-rule="evenodd" clip-rule="evenodd" fill="#152752" d="M774.044,106c-3.467,0.533-5.325,2.675-9,3
		c-2.868-14.132-9.507-24.493-14-37c2.658-0.675,5.092-1.574,7-3C765.219,79.492,768.368,94.01,774.044,106z"/>
	<path fill-rule="evenodd" clip-rule="evenodd" fill="#152752" d="M978.044,74c3.858,0.142,4.621,3.379,9,3
		c-4.819,10.514-10.719,19.948-15,31c1.865,3.468,7.109,3.558,10,6c-3.824,9.684-12.468-4.681-20-4
		C966.773,97.396,973.42,86.709,978.044,74z"/>
	<path fill-rule="evenodd" clip-rule="evenodd" fill="#152752" d="M740.044,103c1.635,6.365,6.042,9.958,8,16
		c-4.997-0.997-4.895,3.105-9,3c-4.481-13.186-12.773-22.561-17-36c8.393-1.274,10.746-8.588,22-7
		C753.376,84.145,750.658,101.423,740.044,103z M731.044,87c2.901,3.765,3.131,10.203,8,12c5.536-2.643,1.714-11.003-1-14
		C735.215,85.171,731.184,84.14,731.044,87z"/>
	<path fill-rule="evenodd" clip-rule="evenodd" fill="#152752" d="M964.044,85c1.218,5.937-6.878,6.097-9,3
		C952.948,81.107,963.007,80.155,964.044,85z"/>
	<path fill-rule="evenodd" clip-rule="evenodd" fill="#152752" d="M1004.044,87c3.341,0.659,4.891,3.109,8,4
		c-5.739,12.261-14.39,21.611-20,34c-3.341-0.659-4.891-3.109-8-4C990.147,109.104,997.85,98.806,1004.044,87z"/>
	<path fill-rule="evenodd" clip-rule="evenodd" fill="#152752" d="M1040.044,110c0.473,3.14-2.691,2.642-3,5
		c-2.304-2.029-5.078-3.588-7-6c-7.44,8.56-13.96,18.04-20,28c-3.651-0.682-4.876-3.791-8-5c6.397-9.602,14.27-17.731,20-28
		c-2.003-1.664-3.704-3.629-7-4c-0.745-3.078,2.745-1.922,2-5C1026.098,98.613,1031.049,106.328,1040.044,110z"/>
	<path fill-rule="evenodd" clip-rule="evenodd" fill="#152752" d="M700.044,100c2.57,0.097,1.43,3.903,4,4
		c-2.467,3.199-7.028,4.306-10,7c1.934,3.399,3.851,6.816,7,9c4.204-0.798,6.657-7.547,11-5c-0.163,1.163,0.221,1.779,1,2
		c-2.268,3.066-6.313,4.354-9,7c4.131,10.511,10.452,12.229,18,4c0.429,1.904,2.154,2.512,2,5c-7.075,2.258-10.61,8.057-16,12
		c-7.682-10.985-15.3-22.033-24-32C689.131,108.421,695.878,105.501,700.044,100z"/>
	<path fill-rule="evenodd" clip-rule="evenodd" fill="#152752" d="M723.044,105c0.576,2.091,2.479,2.854,2,6
		c-1.764,2.622-7.236,2.622-9,0C715.344,105.966,718.118,104.408,723.044,105z"/>
	<path fill-rule="evenodd" clip-rule="evenodd" fill="#152752" d="M926.044,552c-0.517-6.082,9.858-6.716,16-9
		c43.276-16.092,77.798-43.987,103-81c28.115-41.291,50.398-97.33,38-167c-10.338-58.089-39.029-99.817-78-133
		c-37.298-31.759-89.698-56.243-158-52c-60.884,3.782-106.091,30.436-141,63c-35.104,32.746-60.181,79.812-66,138
		c-12.031,120.315,62.226,203.622,147,233c5.155,1.786,13.136,2.779,16,9c-6.321,1.717-13.513-1.89-19-4
		c-43.317-16.657-78.515-43.817-105-79c-30.234-40.163-52.171-96.051-44-165c10.366-87.476,66.922-149.328,136-180
		c25.864-11.484,54.341-19.747,89-20c74.83-0.546,127.427,31.427,167,71c39.438,39.437,68.218,96.837,64,173
		c-3.043,54.959-25.737,98.207-54,131C1008.312,513.338,973.474,541.028,926.044,552z"/>
	<path fill-rule="evenodd" clip-rule="evenodd" fill="#152752" d="M856.044,115c7.216,10.45,11.177,24.157,16,37
		c-2.313-2.669-7.671,0.686-9-1c-0.617-3.716-2.383-6.284-3-10c-4.491-0.491-7.493,0.507-11,1c-2.369,3.631-0.253,11.747-8,10
		C846.865,140.487,847.556,123.846,856.044,115z M851.044,138c3.247,0.58,4.652-0.681,7-1c-1.253-3.414-2.149-7.184-4-10
		C853.433,131.055,850.595,132.884,851.044,138z"/>
	<path fill-rule="evenodd" clip-rule="evenodd" fill="#152752" d="M1045.044,115c4.148,5.835,17.805,9.48,13,18
		c-3.419-2.581-6.419-5.581-9-9c-2.297,3.37-5.769,5.565-8,9c3.473,1.86,4.633,6.033,9,7c-0.309,2.358-3.473,1.86-3,5
		c-3.604-2.063-5.396-5.937-9-8c-3.571,2.429-6.209,5.792-9,9c2.447,3.22,5.015,6.319,9,8c-5.606,9.131-12.086-7.058-19-9
		C1026.817,134.106,1037.028,125.65,1045.044,115z"/>
	<path fill-rule="evenodd" clip-rule="evenodd" fill="#152752" d="M880.044,116c5.805,1.195,11.658,2.342,19,2
		c0.409,2.409-1.826,2.174-1,5c-3.292-0.042-4.979-1.688-9-1c-2.994,1.006-1.974,6.026-3,9c2.823,1.51,6.902,1.765,11,2
		c0.409,2.409-1.826,2.174-1,5c-2.359-1.307-6.911-0.422-9-2c-3.063,1.938-1.597,8.403-3,12c1.711,2.289,7.633,0.367,11,1
		c0,1.667,0,3.333,0,5c-7.241-0.093-12.171-2.495-20-2C877.952,141.241,878.302,127.925,880.044,116z"/>
	<path fill-rule="evenodd" clip-rule="evenodd" fill="#152752" d="M821.044,120c1.104,10.896,4.164,19.836,5,31
		c4.066,0.356,8.385-4.224,12-1c-0.556,7.777-14.108,2.559-18,7c-2.62-11.714-5.125-23.542-7-36
		C816.264,121.22,817.275,119.231,821.044,120z"/>
	<path fill-rule="evenodd" clip-rule="evenodd" fill="#152752" d="M678.044,171c-8.917-9.083-16.183-19.817-27-27
		c8.095-7.126,14.457-20.984,29-18c9.871,2.025,18.919,15.113,16,27C694.117,160.849,684.19,165.08,678.044,171z M661.044,141
		c8.285,6.382,13.669,15.664,22,22C702.298,150.108,670.929,118.712,661.044,141z"/>
	<path fill-rule="evenodd" clip-rule="evenodd" fill="#152752" d="M929.044,126c2.826-0.826,2.591,1.409,5,1
		c-0.572,9.572,0.688,17.313,1,26c8.066-4.009,13.384-15.848,21-17c0.027,0.973,1.225,0.776,2,1c-1.871,12.795-6.837,22.497-9,35
		c-3.061-0.606-5.21-2.123-8-3c2.592-5.742,3.542-13.125,6-19c-6.536-0.105-12.347,14.194-19,14c-1.429-6.904-0.953-15.713-1-24
		c-5.781,4.552-5.821,14.846-12,19c-0.027-0.973-1.224-0.776-2-1C914.994,147.884,925.271,137.61,929.044,126z"/>
	<path fill-rule="evenodd" clip-rule="evenodd" fill="#152752" d="M809.044,154c-7.689,21.749-42.896,12.36-37-13
		C776.845,120.352,817.889,123.95,809.044,154z M791.044,162c17.417,1.855,10.406-32.067-4-29
		C773.684,135.845,780.402,160.866,791.044,162z"/>
	<path fill-rule="evenodd" clip-rule="evenodd" fill="#152752" d="M913.044,139c0.154,2.488-1.571,3.096-2,5
		c-3.649,0.649-5.326-0.674-7-2C902.5,134.161,911.638,133.359,913.044,139z"/>
	<path fill-rule="evenodd" clip-rule="evenodd" fill="#152752" d="M1057.044,157c-5.541,2.792-8.08,8.587-14,11
		c-0.352-3.315-2.995-4.338-5-6c10.596-8.404,19.58-18.42,31-26c6.158,6.644,19.022,20.046,5,27c-3.863,0.197-7.369,0.036-10-1
		c-3.117,6.216-5.07,13.596-7,21c-2.372-2.961-5.712-4.955-7-9C1053.014,168.97,1054.212,162.168,1057.044,157z M1061.044,156
		c4.491,2.979,9.658-0.637,12-3c0.238-4.239-0.079-7.921-3-9C1068.091,148.594,1059.742,151.406,1061.044,156z"/>
	<path fill-rule="evenodd" clip-rule="evenodd" fill="#152752" d="M775.044,174c-3.204,0.463-3.526,3.808-7,4
		c-2.083-5.251-5.495-9.172-8-14c-5.421,0.913-7.39,5.277-12,7c2.476,5.19,5.587,9.746,9,14c-1.912,2.421-4.431,4.235-8,5
		c-3.967-12.366-13.056-19.61-18-31c3.586,0.253,3.664-3.003,7-3c2.1,3.9,4.323,7.677,7,11c4.713-1.62,8.068-4.598,12-7
		c-1.879-5.121-6.414-7.586-8-13c2.555-0.112,3.5-1.833,5-3C763.25,151.794,768.425,163.619,775.044,174z"/>
	<path fill-rule="evenodd" clip-rule="evenodd" fill="#152752" d="M986.044,153c-2.788,12.879-6.547,24.787-9,38
		c-2.284-1.716-5.052-2.948-7-5c-0.311-3.977,2.311-5.023,2-9c-1.021-3.979-5.059-4.941-8-7c-4.695,1.482-7.859,8.75-13,4
		c9.578-8.422,21.558-14.442,31-23C983.523,151.521,984.564,152.479,986.044,153z M968.044,166c0.229,3.438,2.976,4.357,6,5
		c-0.744-3.801,4.093-7.164,1-10C972.424,162.38,971.602,165.558,968.044,166z"/>
	<path fill-rule="evenodd" clip-rule="evenodd" fill="#152752" d="M663.044,163c0.492,4.159-1.186,6.147-4,7
		c-2.932-0.068-3.714-2.286-5-4C653.626,160.864,660.62,159.601,663.044,163z"/>
	<path fill-rule="evenodd" clip-rule="evenodd" fill="#152752" d="M996.044,187c-3.448,3.886-7.685,6.982-10,12
		c-2.638-2.029-5.846-3.487-7-7c9.986-6.68,16.385-16.949,25-25c9.523,3.625,22.652,26.926-1,25c-2.626,5.374-3.589,12.411-5,19
		c-2.754-1.913-5.088-4.246-7-7C992.938,198.561,993.78,192.07,996.044,187z M998.044,186c6.891,3.72,14.864-3.083,11-10
		C1003.276,177.232,1000.529,181.485,998.044,186z"/>
	<path fill-rule="evenodd" clip-rule="evenodd" fill="#152752" d="M726.044,174c-32.48,3.959,11.833,46.545,16,15
		c6.608,9.566-8.672,20.879-21,18c-8.776-2.05-14.441-12.662-13-25C710.456,176.592,721.794,161.974,726.044,174z"/>
	<path fill-rule="evenodd" clip-rule="evenodd" fill="#152752" d="M646.044,170c19.488,5.101,20.739,38.319,0,42
		c-12.128,2.152-20.801-5.532-26-15C619.151,178.44,626.928,168.55,646.044,170z M625.044,187c-0.397,15.75,30.403,26.582,31,8
		c0.339-10.579-14.601-19.003-23-17C626.847,179.478,625.162,182.313,625.044,187z"/>
	<path fill-rule="evenodd" clip-rule="evenodd" fill="#152752" d="M1079.044,171c-0.01,2.656,0.378,5.711-1,7
		c-3.649,0.649-5.326-0.674-7-2C1070.09,170.915,1075.316,168.25,1079.044,171z"/>
	<path fill-rule="evenodd" clip-rule="evenodd" fill="#152752" d="M1090.044,182c32.148-5.157,29.937,42.473,1,41
		c-9.275-0.472-23.788-8.89-19-28C1073.298,189.993,1080.306,183.562,1090.044,182z M1077.044,207c2.713,18.012,42.929,1.915,29-16
		C1094.183,185.59,1075.206,194.796,1077.044,207z"/>
	<path fill-rule="evenodd" clip-rule="evenodd" fill="#152752" d="M1029.044,192c2.612,7.073,11.253,9.137,11,17
		c-0.369,11.509-17.097,13.248-23,3c-4.2,2.466-8.125,5.208-11,9c-2.717-1.283-2.878-5.122-6-6
		C1009.032,206.655,1020.252,200.542,1029.044,192z M1020.044,210c4.147,3.97,10.054,0.841,13-2c0.16-3.16,0.035-6.035-2-7
		C1027.707,204.33,1022.701,205.99,1020.044,210z"/>
	<path fill-rule="evenodd" clip-rule="evenodd" fill="#152752" d="M699.044,203c-5.351-1.017-7.291,1.376-9,4
		c0.068,2.932,2.286,3.714,4,5c7.335-0.458,8.944-4.645,15-4c13.039,1.389,12.999,19.732,2,25c-2.632-1.035-3.368-3.965-6-5
		c4.888-1.112,10.084-1.916,11-7c-1.009-1.991-1.729-4.271-4-5c-9.915,4.159-24.542,7.152-26-5c-0.702-5.85,3.054-10.085,8-14
		C696.049,198.662,698.692,199.685,699.044,203z"/>
	<path fill-rule="evenodd" clip-rule="evenodd" fill="#152752" d="M632.044,253c-13.027-3.973-23.261-10.739-37-14
		c1.093-24.49,28.071-36.932,41-19C643.027,229.685,635.947,242.113,632.044,253z M602.044,231c9.481,4.519,19.297,8.703,29,13
		C645.489,224.973,605.761,208.858,602.044,231z"/>
	<path fill-rule="evenodd" clip-rule="evenodd" fill="#152752" d="M1048.044,219c2.151,1.849,2.64,5.36,5,7
		c-9.091,6.266-36.742,12.559-22,27c14.139,1.467,19.519-11.141,30-10c-0.306,12.665-48.752,24.819-40-6
		C1023.909,226.91,1040.723,226.896,1048.044,219z"/>
	<path fill-rule="evenodd" clip-rule="evenodd" fill="#152752" d="M1123.044,220c3.102,5.699,9.635,13.04,8,20
		c-2.666,11.352-23.958,10.666-24-4c-6.318,1.349-10.682,4.651-17,6c0.311-3.977-2.311-5.023-2-9
		C1100.219,229.175,1111.471,224.427,1123.044,220z M1110.044,234c0.741,8.186,16.895,5.927,15-3c-0.212-1.122-1.109-1.557-2-2
		C1119.609,231.565,1114.447,232.403,1110.044,234z"/>
	<path fill-rule="evenodd" clip-rule="evenodd" fill="#152752" d="M698.044,231c1.218,5.937-6.878,6.097-9,3
		C687.417,227.577,696.729,225.878,698.044,231z"/>
	<path fill-rule="evenodd" clip-rule="evenodd" fill="#152752" d="M666.044,239c12.634,2.366,23.768,6.232,36,9
		c-0.852,2.815-3.23,4.103-3,8c-6.891-1.776-12.771-4.563-20-6c1.781,5.563,11.553,11.772,15,19c-6.449,2.217-16.915,0.418-25,1
		c5.378,5.289,15.464,5.869,20,12c-3.649,4.405-11.396-1.853-17-5c-5.669-3.184-14.208-6.752-16-12c5.17-4.496,19.042-0.292,26-3
		C681.414,253.962,663.984,249.851,666.044,239z"/>
	<path fill-rule="evenodd" clip-rule="evenodd" fill="#152752" d="M1133.044,247c5.893,6.107,5.335,18.665,9,27
		c-3.059-0.725-2.941,1.725-6,1c0.688-4.021-0.958-5.708-1-9c-11.095,2.572-22.462,4.872-32,9c-2.912-1.421-2.744-5.922-4-9
		c10.784-2.883,22.04-5.293,33-8c0.615-4.616-2.245-5.755-2-10C1131.464,248.086,1132.876,248.165,1133.044,247z"/>
	<path fill-rule="evenodd" clip-rule="evenodd" fill="#152752" d="M613.044,252c2.313,4.407,0.428,9.433-6,8
		C604.258,255.974,606.348,249.717,613.044,252z"/>
	<path fill-rule="evenodd" clip-rule="evenodd" fill="#152752" d="M1050.044,271c-5.168,1.499-9.052,4.281-15,5
		c-0.986-2.347-1.754-4.913-2-8c12.988-2.012,22.78-7.219,35-10c0.155,8.545,6.957,15.244,2,23c-4.919,3.113-13.157,2.353-16-2
		c-4.908,4.092-9.612,8.388-13,14C1032.272,283.552,1046.136,277.056,1050.044,271z M1053.044,270c0.723,9.46,17.518,5.687,13-3
		C1061.067,267.357,1058.177,269.799,1053.044,270z"/>
	<path fill-rule="evenodd" clip-rule="evenodd" fill="#152752" d="M855.044,275c-6.67-1.893-17.523-7.197-24-3
		c-0.456,4.703,3.704,1.293,6,2c5.107,1.572,9.938,6.628,15,8c-5.771,5.229-17.94,4.06-27,6c-3.154-2.179-1.692-8.974-2-14
		C827.67,257.001,852.41,262.668,855.044,275z M837.044,280c-1.479-0.521-2.521-1.479-4-2
		C831.183,281.338,836.639,282.21,837.044,280z"/>
	<path fill-rule="evenodd" clip-rule="evenodd" fill="#152752" d="M589.044,263c1.496,2.171,5.736,1.597,6,5
		c-3.049-0.049-5.091,0.909-6,3c-1.23,5.563,2.261,6.405,5,8c7.406-2.409,7.578-10.517,14-12c15.571-3.597,22.181,14.862,12,25
		c-3.073-0.26-4.497-2.169-7-3c2.852-2.148,6.546-3.454,8-7c-0.684-2.983-1.212-6.121-4-7c-8.611,0.389-10.313,7.687-16,11
		C584.454,290.593,581.226,270.872,589.044,263z"/>
	<path fill-rule="evenodd" clip-rule="evenodd" fill="#152752" d="M1127.044,286C1110.144,291.143,1127.374,266.527,1127.044,286
		L1127.044,286z"/>
	<path fill-rule="evenodd" clip-rule="evenodd" fill="#152752" d="M651.044,285c9.06,4.806,26.066,0.546,32,9
		c5.153,7.342,1.797,19.553-6,24c-12.518,1.184-19.973-2.693-31-3c0.605-2.395,1.438-4.563,1-8c10.737,0.173,21.108,5.224,32,2
		c9.813-19.217-19.972-14.165-29-21C651.216,287.838,650.887,286.177,651.044,285z"/>
	<path fill-rule="evenodd" clip-rule="evenodd" fill="#152752" d="M1074.044,321c-2.367-2.022,2.729-5.995,2-11
		c-2.134-14.646-37.177-12.719-29,8c4.973,0.306,9.175-0.158,13-1c-0.769,3.769,1.22,4.78,1,8c-6.107-0.773-9.356,1.31-15,1
		c-18.454-25.027,18.301-47.356,31-26C1080.248,305.388,1083.968,322.329,1074.044,321z"/>
	<path fill-rule="evenodd" clip-rule="evenodd" fill="#152752" d="M589.044,295c-0.107,4.559-6.631,2.702-5,9
		c-0.169,2.503,1.536,3.13,3,4c9.14-2.127,13.371-16.858,26-13c6.288,1.921,10.362,15.477,4,24c-2.322-1.345-5.678-1.655-8-3
		c7.377-1.264,10.948-11.726,3-15c-8.637,2.71-11.668,17.915-25,14C581.202,313.285,573.417,293.093,589.044,295z"/>
	<path fill-rule="evenodd" clip-rule="evenodd" fill="#152752" d="M1107.044,298c12.529,2.804,32.597-1.93,40,6
		c-6.508,6.825-17.951,8.716-25,15c8,4.667,18.416,6.917,27,11c-0.839,1.161-1.319,2.681-1,5c-14.189,0.811-25.548,4.452-39,6
		c0-3,0-6,0-9c8.62-0.38,15.748-2.252,24-3c-7.243-4.756-17.569-6.431-25-11c5.482-6.518,15.019-8.981,23-13
		c-4.858-3.809-16.075-1.258-24-2C1107.044,301.333,1107.044,299.667,1107.044,298z"/>
	<path fill-rule="evenodd" clip-rule="evenodd" fill="#152752" d="M961.044,343c3.667,0,7.333,0,11,0c0,2,0,4,0,6
		c-6.46-0.54-15.16,1.16-20-1c1.326-10.007,10.599-12.067,13-21c0.069-6.482-8.537-2.232-11-4c2.557-10.902,20.012-6.501,17,8
		C969.934,336.348,963.958,337.503,961.044,343z"/>
	<path fill-rule="evenodd" clip-rule="evenodd" fill="#152752" d="M980.044,318c6.333,0,12.667,0,19,0
		c0.069,6.263-3.309,12.857-6,18c-2.469,4.717-5.396,12.152-10,12c-3.307-6.108,7.179-15.389,9-23c-1.962-2.705-9.943,0.61-12-2
		C980.044,321.333,980.044,319.667,980.044,318z"/>
	<path fill-rule="evenodd" clip-rule="evenodd" fill="#152752" d="M753.044,320c0,10.333,0,20.667,0,31c-2,0-4,0-6,0
		c0-8.333,0-16.667,0-25c-0.904-3.633-5.645,2.084-6-1C740.164,318.453,748.469,321.092,753.044,320z"/>
	<path fill-rule="evenodd" clip-rule="evenodd" fill="#152752" d="M769.044,320c4.849,1.151,14.416-2.416,16,2
		c0.142,4.142-6.958,1.042-10,2c0,2.333,0,4.667,0,7c2.728,1.605,7.709,0.957,10,3c5.767,12.86-7.195,22.774-18,16
		c-0.086-1.419-0.165-2.832,1-3c0.683-4.663,6.483,1.83,9-1c1.975-0.691,2.666-2.667,3-5c-0.599-5.068-6.289-5.045-12-5
		C767.441,329.73,768.8,325.423,769.044,320z"/>
	<path fill-rule="evenodd" clip-rule="evenodd" fill="#152752" d="M579.044,322c3.078,0.7,1.922,0.7,5,0c0,4,0,8,0,12
		c1.711,2.288,7.633,0.367,11,1c1.047-3.62-2.269-11.602,2-12c5.712-1.045,1.898,7.435,3,11c2.367,2.3,8.975,0.358,13,1
		c2.566-3.297-0.146-7.997,0-12c2,0,4,0,6,0c-1.231,4.458-1.97,14.667,0,19c-11.337,2.329-26.997,0.336-40,1
		C579.044,336,579.044,329,579.044,322z"/>
	<path fill-rule="evenodd" clip-rule="evenodd" fill="#152752" d="M677.044,323c1.667,0,3.333,0,5,0c0,6.667,0,13.333,0,20
		c-9.396-1.611-25.618-1.705-35,0c-2.27-1.063-0.381-6.286-1-9c9.71,1.289,20.959,1.041,32,1
		C678.717,329.994,677.118,327.26,677.044,323z"/>
	<path fill-rule="evenodd" clip-rule="evenodd" fill="#152752" d="M4.044,328c152.99,0,310.354,0,465,0c4.636,0,10.77-0.333,16,0
		c2.433,0.155,11.467-2.9,11,4c-0.008,7.088-9.336,3.859-12,4c-76.097,4.017-156.259,0-235,0c-70.387,0-144.574,0-219,0
		c-5.904,0-7.647,0.532-16,0c-6.143-0.392-12,2.921-11-5C2.958,329.581,2.879,328.168,4.044,328z"/>
	<path fill-rule="evenodd" clip-rule="evenodd" fill="#152752" d="M1237.044,328c213.697,0,431.675,0,647,0
		c4.852,0,13.188-2.654,17,3c-0.732,8.924-12.605,5-17,5c-208.631,0-419.031,0-631,0c-9.706,0-18.298,2.862-17-5
		C1235.958,329.581,1235.879,328.168,1237.044,328z"/>
	<path fill-rule="evenodd" clip-rule="evenodd" fill="#152752" d="M1081.044,335c-1.39,5.61-1.992,12.008-2,19
		c-5.445,0.45-4.4-7.505-3-11c-1.893-1.774-6.604-0.729-10-1c-3.317,1.683,0.241,10.241-4,11c-3.6,0.614-1.272-6.893-1-11
		c-2.038-2.295-8.305-0.362-12-1c-2.288,1.712-0.367,7.633-1,11c-8.582,0.625-2.062-10.563-4-18
		C1055.427,331.386,1068.935,335.034,1081.044,335z"/>
	<path fill-rule="evenodd" clip-rule="evenodd" fill="#152752" d="M677.044,348c-0.168-2.169,3.547-0.453,5-1
		c1.809,5.524,1.152,13.515,3,19c-12.271,1.396-24.84,2.493-36,5c0.438-3.438-0.395-5.604-1-8c9.267-2.4,21.162-2.172,31-4
		C679.191,354.52,678.936,350.441,677.044,348z"/>
	<path fill-rule="evenodd" clip-rule="evenodd" fill="#152752" d="M1108.044,347c14.223,0.11,26.053,2.613,40,3
		c-1.576,6.424-0.924,15.075-3,21c-1.711,0.21-2.59-1.705-3,0c-3.063-3.129,0.876-7.741,0-12c-2.434-1.899-7.984-0.683-11-2
		c-1.916,2.417-0.631,8.035-1,12c-2,0-4,0-6,0c1.521-2.812,0.952-7.715,2-11c-1.749-3.584-9.781-0.886-13-3
		c-2.3,2.366-0.358,8.976-1,13c-2.355,0.022-2.944-1.723-6-1C1107.778,361.4,1108.272,354.563,1108.044,347z"/>
	<path fill-rule="evenodd" clip-rule="evenodd" fill="#152752" d="M619.044,350c0,3,0,6,0,9c-6.365-0.365-10.222,1.778-17,1
		c-2.346,4.431,0.488,11.208,1,16c7.414,0.866,14.477-3.231,19-2c0,3,0,6,0,9c-14.748-0.415-25.081,3.586-39,4
		c0.688-4.021-0.958-5.708-1-9c5.779,0.445,10.247-0.42,15-1c0.279-6.279-0.263-11.737-2-16c-4.888,1.112-9.819,2.182-15,3
		c0.688-4.021-0.958-5.708-1-9C591.924,352.881,606.037,351.993,619.044,350z"/>
	<path fill-rule="evenodd" clip-rule="evenodd" fill="#152752" d="M1043.044,357c10.678,4.322,25.715,4.286,35,10
		c-5.468,9.532-18.695,11.305-28,17c6.25,3.417,15.889,3.444,23,6c-0.19,0.81-1.003,0.997-1,2c-8.673,2.589-25.274-3.996-35-7
		c5.807-9.193,18.79-11.21,28-17c-5.436-4.231-15.223-4.11-23-6C1042.884,360.839,1043.363,359.319,1043.044,357z"/>
	<path fill-rule="evenodd" clip-rule="evenodd" fill="#152752" d="M1106.044,372c12.769,2.898,24.646,6.688,39,8
		c-2.596,10.731-2.783,28.098-19,22c-2.219-2.448-3.93-5.404-5-9c-7.687,1.313-12.562,5.438-21,6c0.706-3.294,1.606-6.394,2-10
		c7.465-0.201,11.742-3.591,19-4c-4.587-2.413-10.577-3.423-17-4C1104.489,377.778,1105.96,375.582,1106.044,372z M1139.044,388
		c-5.603-0.397-9.066-2.934-15-3C1121.625,394.963,1138.977,397.716,1139.044,388z"/>
	<path fill-rule="evenodd" clip-rule="evenodd" fill="#152752" d="M688.044,382c-12.091,2.242-23.523,5.144-35,8
		c0.528-4.195-1.747-5.586-2-9c12.69-1.311,24.513-3.486,34-8C688.447,373.597,687.21,378.834,688.044,382z"/>
	<path fill-rule="evenodd" clip-rule="evenodd" fill="#152752" d="M659.044,401c3.059,0.726,2.941-1.726,6-1
		c-12.423,28.1,40.615,19.293,25-3c-5.45,0.217-7.55,3.783-13,4c0.658-3.658-2.164-3.836-2-7c17.172-14.853,29.862,13.747,19,26
		C681.766,433.85,654.816,424.08,659.044,401z"/>
	<path fill-rule="evenodd" clip-rule="evenodd" fill="#152752" d="M610.044,394c-0.254,3.412-2.139,5.194-6,5
		c-0.977-1.023-1.977-2.023-3-3C599.871,389.115,609.292,388.346,610.044,394z"/>
	<path fill-rule="evenodd" clip-rule="evenodd" fill="#152752" d="M1042.044,396c-4.804,0.003-13.278,8.244-5,13
		c7.848-2.708,16.344-13.089,26-5c3.658,5.933,1.561,15.558-4,18c-2.375-0.625-4.655-1.345-5-4c4.639,0.306,6.913-1.754,7-6
		c1.053-3.72-3.373-1.961-4-4c-7.028,1.271-7.307,7.178-13,8c-14.385,2.076-19.146-14.877-9-24
		C1038.326,392.385,1039.453,394.924,1042.044,396z"/>
	<path fill-rule="evenodd" clip-rule="evenodd" fill="#152752" d="M1099.044,403c11.383,4.95,24.182,8.484,37,12
		c0.502,4.169-2.923,4.411-2,9c-13.271-3.396-23.951-9.382-38-12C1097.002,408.958,1098.063,406.019,1099.044,403z"/>
	<path fill-rule="evenodd" clip-rule="evenodd" fill="#152752" d="M609.044,406c16.765-3.702,30.547,7.107,27,25
		c-5.047,25.46-49.05,16.33-42-13C595.316,412.706,600.582,407.869,609.044,406z M598.044,427c-0.521,18.457,34.303,8.982,33-5
		c-0.79-8.482-6.93-8.945-15-8C605.117,415.279,598.279,418.669,598.044,427z"/>
	<path fill-rule="evenodd" clip-rule="evenodd" fill="#152752" d="M1023.044,416c11.75,4.584,20.092,12.574,32,17
		c-0.139,3.528-2.861,4.472-3,8c-11.338-4.996-20.217-12.449-32-17C1020.183,420.472,1022.905,419.528,1023.044,416z"/>
	<path fill-rule="evenodd" clip-rule="evenodd" fill="#152752" d="M710.044,429c-9.777,7.223-21.392,12.608-32,19
		c-0.138-3.528-2.862-4.472-3-8c10.42-4.913,20.709-9.958,29-17C708.049,422.995,707.359,427.686,710.044,429z"/>
	<path fill-rule="evenodd" clip-rule="evenodd" fill="#152752" d="M1092.044,423c9.513,5.487,20.878,9.122,31,14
		c1.673-2.327,2.612-5.388,3-9c2.928-0.261,3.072,2.261,6,2c-3.83,8.503-8.047,16.62-11,26c-6.396-1.145-2.746-6.43-1-10
		c-8.97-6.363-21.207-9.46-32-14C1089.73,429.354,1090.357,425.646,1092.044,423z"/>
	<path fill-rule="evenodd" clip-rule="evenodd" fill="#152752" d="M1022.044,436c-7.882-4.886-12.578,8.796-5,11
		c6.386-2.257,10.857-7.008,18-5c12.51,3.518,6.578,28.668-5,19c0.155-2.878,7.43-0.119,8-5c0.479-3.146-1.424-3.909-2-6
		c-9.446-1.225-10.846,6.079-18,5C999.913,452.265,1014.872,418.563,1022.044,436z"/>
	<path fill-rule="evenodd" clip-rule="evenodd" fill="#152752" d="M725.044,451c-1.821,2.036-5.844,5.426-8,4
		c3.273-3.385,2.134-10.522-2-12c-12.42,3.268,1.077,31.225-20,26c-4.031-0.999-7.553-6.235-8-13c1.794,0.127,2.109-1.224,4-1
		c3.572-0.539-1.575,9.124,4,9c10.541,0.729,3.611-10.755,5-18C704.866,434.214,724.134,439.315,725.044,451z"/>
	<path fill-rule="evenodd" clip-rule="evenodd" fill="#152752" d="M1085.044,448c30.061-8.228,35.566,35.511,14,41
		C1073.545,495.49,1059.117,455.096,1085.044,448z M1076.044,464c-0.438,13.62,20.708,21.254,28,16
		c14.937-10.763-11.215-27.354-20-25C1079.565,456.2,1076.228,458.285,1076.044,464z"/>
	<path fill-rule="evenodd" clip-rule="evenodd" fill="#152752" d="M635.044,461c5.413-1.587,9.475-4.525,13-8
		c2.802,1.864,3.856,5.478,5,9c-12.208,5.125-22.418,12.248-34,18c-2.479-7.407-9.985-10.621-9-19
		C611.516,448.482,631.281,449.208,635.044,461z M617.044,470c5.848-0.819,8.28-5.054,14-6
		C629.383,454.507,611.783,461.072,617.044,470z"/>
	<path fill-rule="evenodd" clip-rule="evenodd" fill="#152752" d="M979.044,505c12.209,7.387-5.51,28.739-12,14
		c-0.396-4.537,4.549,3.074,7-1c-0.287-15.38-17.596-13.738-31-16c12.237-13.826,63.087,2.265,65-18
		c1.327-14.061-19.908-13.962-17,3c-15.497-9.372,1.98-22.512,13-20c19.426,4.429,12.253,42.484-19,33c3.306,1.694,7.745,2.255,9,6
		c-0.104,4.229-2.692,5.975-6,7C989.163,506.214,982.924,506.787,979.044,505z"/>
	<path fill-rule="evenodd" clip-rule="evenodd" fill="#152752" d="M748.044,493c3.142-8.696-5.58-17.046-15-13
		c-7.521,39.472,48.618-3.749,62,21c-15.189-2.44-30.635,11.644-21,25c-15.874,3.037-14.246-20.935-5-24
		c-22.47,5.366-50.165,5.305-47-19C725.551,456.063,774.17,478.63,748.044,493z"/>
	<path fill-rule="evenodd" clip-rule="evenodd" fill="#152752" d="M670.044,486c-12.543,5.79-21.142,15.524-33,22
		c-2.332-8.424-10.849-9.692-10-19c1.123-12.313,19.906-13.544,24-1C657.902,483.841,666.609,471.952,670.044,486z M635.044,498
		c5.878-0.788,7.247-6.087,13-7c0.422-3.422-2.995-3.005-4-5C638.255,486.758,631.502,491.166,635.044,498z"/>
	<path fill-rule="evenodd" clip-rule="evenodd" fill="#152752" d="M1055.044,487c8.225,11.109,12.977,25.689,20,38
		c-1.23,0.437-2.054,1.279-2,3c-13.56-5.107-26.564-10.769-40-16c1.382-2.951,4.618-4.049,6-7c3.446,1.887,7.71,2.957,11,5
		c2.297-3.37,5.769-5.565,8-9c-1.69-3.977-4.717-6.617-6-11C1053.484,489.44,1054.484,488.44,1055.044,487z M1055.044,512
		c4.173-0.135,7.462,5.82,11,3c-2.827-2.506-3.173-7.494-6-10C1059.1,508.056,1055.178,508.134,1055.044,512z"/>
	<path fill-rule="evenodd" clip-rule="evenodd" fill="#152752" d="M1077.044,490c3.425,4.929-3.338,9.378-8,6
		C1067.32,489.862,1073.064,487.26,1077.044,490z"/>
	<path fill-rule="evenodd" clip-rule="evenodd" fill="#152752" d="M651.044,523c-2.204-2.463-4.948-4.386-6-8
		c10.065-7.269,20.215-14.452,28-24C694.879,497.779,653.912,514.193,651.044,523z"/>
	<path fill-rule="evenodd" clip-rule="evenodd" fill="#152752" d="M683.044,501c5.626,3.707,8.592,10.074,15,13
		c-7.229,11.771-19.269,18.731-27,30c-3.141-1.192-3.149-5.518-7-6c7.917-8.75,16.25-17.084,25-25c-1.729-4.604-7.772-4.895-9-10
		C681.754,503.044,682.634,502.257,683.044,501z"/>
	<path fill-rule="evenodd" clip-rule="evenodd" fill="#152752" d="M763.044,505c-5.402,2.598-5.75,10.25-12,12
		C748.661,510.007,754.47,504.198,763.044,505z"/>
	<path fill-rule="evenodd" clip-rule="evenodd" fill="#152752" d="M1035.044,518c9.129,6.538,13.965,17.368,23,24
		c-1.329,3.338-5.85,3.483-7,7c-6.707-4.49-13.693-24.804-24-25c-3.938-0.075-8.055,2.939-9,6c-4.656,15.075,20.281,20.825,16,33
		C1022.848,559.185,994.51,517.498,1035.044,518z"/>
	<path fill-rule="evenodd" clip-rule="evenodd" fill="#152752" d="M703.044,520c2.83,1.504,4.26,4.406,8,5
		c-7.455,11.212-17.538,19.795-25,31c-3.929-0.404-4.271-4.396-8-5C685.616,539.905,696.602,532.225,703.044,520z"/>
	<path fill-rule="evenodd" clip-rule="evenodd" fill="#152752" d="M715.044,531c3.78,0.22,4.856,3.144,8,4
		c-2.656,5.678-6.374,10.293-10,15c2.736,4.264,8.318,5.682,12,9c5.154-3.513,6.99-10.344,11-15c2.735,0.932,4.265,3.068,7,4
		c-6.227,12.106-14.67,21.996-21,34c-2.942-1.392-3.784-4.883-8-5c3.176-4.157,5.717-8.949,9-13c-3.519-3.48-8.598-5.402-12-9
		c-3.999,3.335-5.872,8.794-9,13c-3.766-0.234-4.234-3.766-8-4C700.933,552.889,708.816,542.771,715.044,531z"/>
	<path fill-rule="evenodd" clip-rule="evenodd" fill="#152752" d="M1004.044,538c0.777,2.223,2.101,3.899,2,7
		c-2.963-0.704-4.354-2.979-9-2c-2.394,1.273-4.071,3.262-4,7c0.19,0.81,1.003,0.997,1,2c11.01,3.039,25.849,1.16,26,14
		c0.078,6.611-5.375,13.153-16,13c0.726-3.059-1.726-2.941-1-6c5.041,1.664,11.342,1.396,11-5c-7.988-7.369-31.179-0.92-26-21
		C989.304,542.116,995.847,538.052,1004.044,538z"/>
	<path fill-rule="evenodd" clip-rule="evenodd" fill="#152752" d="M996.044,587c-8.911,0.724-10.668,8.02-19,7
		c-12.26-1.499-12.626-21.951,1-24c-0.859-6.808-5.105-10.229-7-16c2.901-0.766,5.752-1.582,7-4
		C985.174,561.203,990.041,574.67,996.044,587z M985.044,588c1.197-4.49-2.279-12.174-6-15
		C972.874,576.551,976.773,589.599,985.044,588z"/>
	<path fill-rule="evenodd" clip-rule="evenodd" fill="#152752" d="M761.044,557c3.554,0.113,3.635,3.698,8,3
		c-4.389,13.277-11.594,23.739-16,37c-5.739-4.935-18.704-4.674-20-14c-1.396-10.047,11.252-18.589,21-11
		C757.273,567.896,759.19,562.479,761.044,557z M747.044,589c0.791-5.21,4.75-7.25,5-13C743.884,569.99,736.969,588.648,747.044,589
		z"/>
	<path fill-rule="evenodd" clip-rule="evenodd" fill="#152752" d="M844.044,19c99.98-6.438,180.132,35.132,232,83
		c51.763,47.771,96.004,120.191,100,215c4.417,104.8-34.874,176.979-85,230c-27.333,28.912-55.549,49.68-90,67
		c-36.171,18.186-76.564,27.379-124,33c-5.168,0.612-10.834,2.244-16,2c-91.599-4.336-161.771-38.262-211-84
		c-54.458-50.596-96.947-117.995-103-212c-6.599-102.488,34.603-180.95,82-233c36.576-40.167,84.299-71.922,146-90
		C797.101,23.538,821.301,20.464,844.044,19z M1099.044,529c43.443-52.912,79.749-129.517,70-227
		c-8.529-85.289-49.204-151.4-101-198c-50.694-45.608-124.157-84.481-219-80c-90.094,4.257-158.493,43.493-207,92
		c-48.674,48.674-85.421,116.477-89,206c-3.646,91.211,32.861,166.34,79,216c48.019,51.685,106.249,90.321,193,100
		c-19.009-8.077-38.051-11.291-56-17c-55.246-17.571-98.665-47.195-134-86c-44.839-49.241-81.299-123.583-77-216
		c4.18-89.847,42.455-153.454,91-202c49.758-49.758,113.48-84.101,206-88c91.215-3.844,164.188,36.162,212,81
		c51.205,48.021,89.532,110.19,97,197c8.16,94.861-26.782,169.139-70,221c-33.684,40.42-77.481,70.734-130,90
		c-17.581,6.449-37.289,8.549-55,19C993.924,622.115,1053.503,584.467,1099.044,529z M1148.044,415
		c17.827-61.193,13.496-130.658-6-185c-36.296-101.169-120.455-175.066-237-193c-65.18-10.03-133.252,4.531-180,29
		c-85.719,44.867-163.418,136.927-163,267c0.267,83.071,32.444,147.544,72,194c41.691,48.963,95.672,82.337,168,98
		c1.122-0.102,1.557,1.453,2,0c-11.935-9.065-11.787-30.213-14-49c17.735-2.477,23.54-27.135,9-38c-5.504-2.829-18.244,1.578-22-3
		c5.686-20.98,23.61-29.723,45-35c-36.788-9.427-65.457-27.228-88-53c-21.445-24.518-40.263-58.183-43-99
		c-4.517-67.361,22.301-113.498,55-144c29.178-27.218,68.557-46.786,120-46c49.72,0.759,88.455,19.956,118,48
		c33.802,32.084,58.332,76.471,54,140c-5.598,82.092-61.621,134.453-136,156c28.855-1.522,45.829,8.838,51,31
		c-12.191,3.563-25.889,2.103-30,12c-6.778,16.319,10.781,24.931,13,35c1.867,8.472-0.358,18.807-2,25
		c-1.902,7.174-7.791,12.724-7,19C1041.331,593.525,1116.323,523.886,1148.044,415z M1034.044,340
		c3.009-54.344-19.918-97.917-50-128c-29.995-29.995-75.752-53.671-129-50c-91.485,6.308-160.429,79.824-160,171
		c0.167,35.636,12.342,65.186,26,87c4.152,6.632,10.944,19.987,15,19c-2.396-13.964-13.08-23.735-19-36
		c-19.738-40.896-19.756-98.86,0-141c25.147-53.639,80.512-98.876,159-94c81.94,5.09,146.567,69.976,152,151
		c1.741,25.975-2.311,45.497-8,63c-3.972,12.219-11.344,22.886-10,33C1024.782,394.432,1032.385,369.962,1034.044,340z
		 M1024.044,322c-5.481-80.392-64.215-139.561-141-149c-87.57-10.765-170.805,54.159-177,143c-3.388,48.58,11.075,85.311,33,113
		c1.115-3.219,1.703-6.964,3-10c30.325-25.342,46.412-64.921,101-66c3.38-14.088-20.448-6.691-23-17c-0.993-4.01,0.419-11.632,9-11
		c-0.485,4.515-6.885,3.115-5,10c24.29,15.13,61.88-9.453,48-39c7.95,3.082,10.239-7.612,13-13c-2.711-0.622-2.489-4.178-6-4
		c-2.475,1.525,0.211,8.211-4,8c-0.962-2.634-1.933-8.566,0-11c-10.039-4.961-19.065-10.935-21-24c-9.418-1.915-17.605-5.061-24-10
		c-8.948,8.052-15.279,18.721-13,38c-4.37,6.63-7.296,14.704-9,24c3.221,2.243,5.942-2.927,11-2c3.517-2.263-3.217-4.397,0-6
		c4.3,3.203,10.464,9.304,10,14c-3.815-0.315-6.339-5.683-10-3c-3.062,11.396,14.703,1.964,16,9c-2.746,2.533-6.982,2.035-11,1
		c-3.283,1.62,2.683,6.28-2,6c-5.083-1.917-4.874-9.126-8-13c-34.925,1.028-67.752-12.686-71-39c-2.12-17.174,5.208-19.639,10-30
		c4.611-9.971,4.193-17.521,17-19c0.073-4.784,0.699-10.017,4-14c2.998-3.616,19.619-10.607,23-11c7.991-0.928,13.195,4.587,20,6
		c1.949-1.718,3.029-4.304,6-5c14.292,4.421,21.554-11.689,33-14c6.997-1.412,14.449,3.303,24,4c5.327,0.389,11.004-1.845,15-1
		c2.372,0.501,4.262,4.771,8,6c2.941,0.967,6.397-0.764,8,0c1.979,0.944,3.286,4.542,6,6c11.996,6.448,26.437,7.332,28,21
		c12.33,4.456,20.3,17.055,20,31c-0.158,7.35-4.258,11.646-7,18c-1.206,2.795-0.782,6.206-2,9c-5.171,11.869-17.428,14.797-30,15
		c-7.711,5.956-18.091,9.242-19,22c0.573,2.427,6.469-0.469,6,3c-4.161,10.33,8.575,8.383,5,21c28.97,13.697,48.532,36.802,74,54
		c2.641,5.831,9.303,12.509,14,13C1016.617,379.821,1026.488,357.846,1024.044,322z M843.044,198c-7.391,0.942-12.041,4.626-20,5
		c-0.071,3.738,1.607,5.727,4,7c-1.164-9.498,12.229-4.438,15-10c0.546,4.787,6.886,3.78,9,7c-5.703,5.806,7.175,6.173,1,13
		c11.028-2.695,5.887,10.779,9,16c3.35-0.317,6.304-1.03,8-3c-2.333-0.334-4.309-1.025-5-3c-0.306-2.306,2.889-1.111,3-3
		c-5.814-0.261-0.563-5.378,0-8c5.29,5.589,14.072,1.933,22,4c1.647-1.686,2.172-4.494,4-6c3.143,2.524,3.465,7.868,8,9
		c-1.817-4.594-0.254-3.755,4-3c-0.676-5.99-4.589-8.745-7-13c4.452-2.352-0.926-3.525-1-7c3.537-0.88,5.152,2.569,6-1
		c-2.333-0.334-4.309-1.025-5-3c1.182-0.485,2.267-1.066,3-2c-2.386-1.614-7.247-0.753-8-4c1.496-0.17,3.69,0.357,4-1
		c-2.048-1.548-8.952-1.548-11,0c5.008,7.174,4.533,32.501-8,24c2.327-6.323,5.089-11.77,3-20
		C871.87,184.69,850.683,185.808,843.044,198z M800.044,224c2.562,1.104,1.574,5.759,6,5c1.616-4.907-5.712-8.886,1-10
		c0.261-2.928-2.261-3.072-2-6c5.424,0.296-0.29-4.745,4-6c-2.557-2.443-4.017-5.983-7-8c-7.747,1.295-11.543,8.289-11,15
		c-3.686-0.314-2.352-5.648-4-8c-8.949,0.384-12.063,6.604-14,14c4.809,0.809,3.612-4.388,9-3c1.521,2.812,0.952,7.715,2,11
		c3.973,0.973,0.411-5.589,4-5c1.885,3.448,8.174,2.493,9,7C795.692,235.355,798.409,224.974,800.044,224z M931.044,235
		c7.642-0.173,6.756-6.242,13-6c8.063,0.313,10.136,12.092,16,17C959.562,226.918,938.341,215.332,931.044,235z M872.044,234
		c1.396,7.271,11.959,5.375,18,8c-0.39-6.056,5.692-5.641,4-13c-2.008-3.604-9.875-4.014-13-1c-1.047,2.829,1.65,6.86,0,7
		c-1.714-1.286-3.932-2.068-4-5c0.586-2.081,2.102-3.232,3-5c-1.667,0-3.333,0-5,0C877.388,229.124,875.075,232.474,872.044,234z
		 M757.044,241c-19.045,14.942-9.411,54.346,13,55c-4.11-8.557-14.452-10.881-20-18c-1.969-12.475-0.946-28.544,8-30
		c8.786-1.43,17.274,14.365,27,7c-8.307-4.693-21.579-4.421-25-14c1.088-7.245,7.002-9.665,10-15
		C761.876,227.166,756.513,231.136,757.044,241z M843.044,235c-0.708,3.708,1.708,4.292,1,8c6.818,3.372,20.168,3.768,15,16
		c1.759,2.241,5.998,2.002,8,4c0.409,2.409-1.826,2.174-1,5c2.6,0.4,3.016,2.984,6,3c0.898-1.768,2.414-2.919,3-5
		c-1.613-1.387-5.155-0.845-6-3c-0.225-3.558,0.674-5.992,3-7c3.302,4.032,6.881,7.785,15,7c-1.506,6.743,8.527,4.185,10,5
		c1.236,3.236-3.236,0.764-2,4c2.196,2.361,4.89,5.33,9,3c0.725-3.059-1.725-2.941-1-6c2.421-1.246,4.858-2.476,8-3
		c-1.414-6.145-6.077-11.315-5-17c-4.201-1.132-7.663-3.004-12-4c-3.14,2.194-6.813,3.854-9,7c-3.056-0.944-3.134-4.866-7-5
		c-0.776,2.224-0.578,5.422-3,6c-3,0-6,0-9,0c1.63-5.297-3.024-4.31-5-6c0.605-2.395,1.438-4.563,1-8
		C857.507,235.702,850.323,232.576,843.044,235z M937.044,288c7.94-2.479,20.925-10.293,15-20
		C950.284,277.906,941.901,281.19,937.044,288z M882.044,329c5.111-2.078,7.745-0.196,10,3c2.532-2.801,6.469-4.198,8-8
		c-2.483,0.15-4.15-0.517-5-2c-0.617-4.283,3.256-4.077,3-8c-6.35,0.725-2.593-2.148-2-5c-5.669,0.536-7.753,1.19-12-1
		C883.5,314.64,881.018,324.058,882.044,329z M868.044,336c-4.042,6.292-17.941,2.726-21,10c5.42,10.934,37.729-0.048,36-8
		C880.904,334.474,873.147,336.563,868.044,336z M848.044,355c1.954,6.676-1.984,8.433,0,14c14.921,5.647,42.868,1.774,48-12
		c-11.974,3.27-29.485,8.548-43,4c12.284-3.376,35.725-0.682,41-14c-1.889-0.111-0.694-3.306-3-3
		C881.494,352.449,865.046,354.002,848.044,355z M912.044,380c1.862,8.651,9.015,4.866,14,7c-0.895-4.955,3.288-4.116,6-3
		c0.723-3.056-1.022-3.645-1-6c1.289-1.378,4.344-0.989,7-1c0.003-3.336-3.253-3.414-3-7c1,0,2,0,3,0c-2.017-5.755-1.196-6.011,0-12
		c-0.903-1.763-2.237-3.097-4-4C931.978,367.934,924.971,376.927,912.044,380z M799.044,371c3.926,0.74,11.443-2.11,11,3
		c-0.979,5.473-7.199,2.205-13,4c-6.124,1.895-14.927,9.366-22,16c-9.373,8.79-26.968,20.72-11,27
		c12.821-10.932,22.951-42.207,47-29c3.35-4.193,1.59-9.637,3-15c2.189-8.326,10.727-15.451,10-19
		C814.451,361.073,804.057,363.346,799.044,371z M835.044,386c-5.44,8.916-20.513,9.535-14,23c10.231,3.436,19.633,7.7,31,10
		c6.571-15.411,28.832-19.398,27-40c-4.62-0.286-1.38,7.286-6,7c0-3,0-6,0-9c-5.377,0.289-1.916,9.417-7,10
		c-0.609-2.391,1.255-7.255-1-8c-3.642,3.691-3.83,10.836-9,13c0.362-5.639,3.227-8.772,5-13c-9.702-0.605-17.854,8.741-23,16
		c-0.455-7.122,5.838-7.496,6-14c-1.446-2.651-2.234,3.672-6,2c-0.786-2.655,5.753-5.689,1-6
		C834.621,378.341,837.348,382.224,835.044,386z M924.044,392c3.447,2.553,3.95,8.05,9,9c5.098-1.569,8.04-5.293,11-9
		c-4.337-0.33-3.23-6.104-6-8C934.48,387.77,929.003,389.626,924.044,392z M893.044,391c19.463,5.87,24.525,26.142,36,40
		c8.55-12.119,28.412-18.251,29-35c-11.196,1.01-15.072,13.861-27,17C919.307,406.173,910.037,376.702,893.044,391z M933.044,410
		c2.63-4.703,8.484-6.183,11-11c-4.569-1.277-7.234,7.219-13,8c-7.467-5.539-12.016-19.311-21-20
		C918.848,393.529,923.6,404.111,933.044,410z M765.044,425c-3.78,0.431-4.856-4.85-8-2c1.025,3.308,2.77,5.896,7,6
		c14.506-10.494,17.086-32.914,39-36C784.318,389.33,776.751,416.021,765.044,425z M928.044,438c11.299-9.367,20.835-20.499,32-30
		c-13.432,5.568-19.386,18.614-31,26c-13.164-12.837-17.751-39.58-40-40C910.831,399.879,916.085,422.292,928.044,438z M786.044,434
		c0-1.667,0-3.333,0-5c-7.224,3.775-7.226,14.774-17,16c0.489,3.156-1.802,3.531-1,7c6.805,5.528,11.989,12.678,22,15
		c9.415-20.329,26.099-38.463,25-66c-24.072-21.893-35.997,25.123-53,32c-6.005-1.995-5.48-10.52-13-11
		c-0.586,7.718,5.917,16.652,14,19c12.492-7.344,18.213-27.665,29-37c8.885-7.688,22.195-5.591,19,11
		c-2.446,12.704-18.692,32.791-24,41c1.315-8.028,7.403-16.584,7-23c-3.184,5.815-6.206,11.794-10,17c0.378-8.3,7.719-14.933,7-21
		C789.769,431.059,789.449,434.072,786.044,434z M957.044,415c-11.198,7.131-17.437,19.576-29,26
		c-14.885-12.221-17.962-46.397-43-45c-8.702,0.485-20.807,12.024-26,20c-12.177,18.698-18.088,46.503-28,66
		c5.569,1.567,13.295,5.451,16-1c1.545,7.454,13.59,4.41,22,5c2.54-0.793,0.54-6.127,4-6c-0.132,2.465-0.151,4.818,1,6
		c5.479-0.188,9.482-1.852,14-3c2.979-12.242-0.985-25.49,0-39c-2.82-2.912-1.247,2.991-5,2c0.103-5.437-0.339-10.327-3-13
		c-3.493,8.841-2.493,22.174-6,31c-5.365-8.002,3.834-23.272,0-33c-6.891,6.776-3.983,23.35-10,31c-1.124-6.634,2.028-17.175,3-25
		c-8.665,5.336-7.018,20.982-15,27c1.093-9.573,5.443-15.89,7-25c-7.62,0.047-4.416,10.918-11,12c8.566-18.083,19.052-55.043,45-46
		c18.941,6.602,19.007,35.252,36,46c17.425-13.575,36.246-31.085,47-48C971.349,409.644,963.472,410.907,957.044,415z M840.044,428
		c0.97,15.313-12.133,22.773-23,13c-2.071-9.097,8.089-17.312,1-22c-6.192,5.744-8.107,21.524-3,30c-1.687,5.494-9.576,2.373-12,0
		c-2.561,6.773-6.498,12.168-6,22c11.32,10.752,11.444-8.77,14-16c1.43,3.749,10.053-1.926,9,6c-3.146,0.479-3.909-1.424-6-2
		c-0.306,3.027-3.094,3.572-2,8c3.87-1.581,11.343-1.579,14,1c-2.623-4.274,1.343-2.705,2-6c0.275-3.942-4.275-3.058-4-7
		c4.021,0.688,5.708-0.958,9-1c1.373-2.279-2.578-3.759,0-4c15.947-1.972,24.052-30.419,4-33
		C833.776,422.362,839.078,423.971,840.044,428z M898.044,481c10.299,2.314,19.016-4.752,27-8c1.404-4.787-2.534-9.399,0-12
		c3.359,1.641,0.732,9.268,6,9c6.381-2.576,17.686-7.626,11-17c-6.546-2.176-8.961,4.75-16,5c-11.012-6.654-10.958-24.375-25-28
		C897.716,444.673,898.049,463.005,898.044,481z M822.044,481c8.076,3.138,11.375-11.688,11-17c-1.333,0-2.667,0-4,0
		C827.994,470.95,824.145,475.101,822.044,481z M812.044,470c-2.344,4.139-1.042,12.041,6,10c4.081-2.646,3.953-6.424,2-11
		C817.163,469.119,813.498,468.454,812.044,470z M851.044,506c6.888,1.112,9.316,6.684,15,9c5.85-5.15,14.297-7.703,22-11
		C875.965,506.252,861.89,504.761,851.044,506z M922.044,579c-3.268-2.004-6.968-2.721-9,1c1.127,3.873,9.156,0.845,7,8
		c-10.756,0.672-14.895,11.844-26,9c-0.153,4.557-0.827,3.924,0,8c10.729-0.116,19.17,15.347,8,15c4.607,7.632-5.042,9.606-7,14
		c23.597-6.736,34.558-26.108,34-57c-23.408-10.354-17.457-55.337,15-51c-9.106-29.154-62.448-23.888-78-4
		c9.266,0.933,8.308-8.358,16-9c1.329,1.004,3.721,0.945,4,3c-1.158,3.509-2.842,6.491-4,10c2.787,0.88,6.085,1.248,8,3
		c-2.084,4.915-10.246,3.754-11,10c7.998,7.945-1.15,14.811,1,24c-2.321,2.68-7.659,2.342-8,7c10.704,5.854,15.701,21.993,31,20
		c1.317-3.016,3.23-5.437,3-10c-8.737-10.188-19.876-19.605-15-34c2.604-7.686,13.962-9.666,15-16c1.26-7.693-4.019-10.634-9-13
		c-2.826,1.213-5.941,7.341-8,6c1.861-24.367,37.977,4.242,16,16c10.364,1.658,9.972,19.417,0,21c-0.725-2.275-5.702-0.298-5-4
		c1.223-3.048,3.816,1.462,5-1c0-2.333,0-4.667,0-7c-2.872-1.188-5.309-2.096-8-1c-4.664,6.603-0.869,17.744,5,20
		c0.142-4.545,13.556-10.877,13-1c-2.348-0.319-3.753-1.58-7-1c0.271,4.146-1.313,3.896,0,7
		C913.84,569.544,924.729,567.778,922.044,579z M779.044,533c31.985-20.602,56.848,34.126,23,44c-1.497,26.496,4.06,45.94,22,53
		c0.513-4.18-4.589-2.744-6-5c5.274-4.451,14.09-2.652,21-1c7.719-3.554,5.409-15.916,5-24c-3.383-2.987-5.255,3.969-8,1
		c7.447-7.01,22.594-1.895,29-11c2.903,0.764,2.594,4.739,7,4c0.041-7.708-8.426-6.907-14-9c-2.83,1.504-4.26,4.406-8,5
		c-19.633-2.966-24.276,9.057-36,14c1.286-3.184,3.167-7.786,0-10c-4.455-0.745-7.152,5.456-9,4c0-2.333,0-4.667,0-7
		c2.761-1.239,7.878-0.122,8-4c-3.499-1.404-6.401,2.805-8,0c1.151-2.182,0.198-6.468,3-7c6.147,0.853,8.315,5.686,14,7
		c2.536-6.849,11.013-6.917,12-13c1.073-6.615-8.603-12.472-11-22c-1.747-6.944,1.07-11.196-2-17c-2.899-1.101-6.763-1.237-7-5
		c4.402-5.29,7.192,3.4,11,1c1.575-6.574-2.884-7.116-4-11c7.414-0.747,8.469,4.865,10,10c4.589-0.535,3.764-4.261,3-8
		c2.488,1.512,4.572,3.428,5,7c-9.054,7.917-2.638,21.9,6,26c2.984-0.016,3.4-2.6,6-3c2.422,2.047,5.133,5.82,8,2
		c0.397-6.397-7.353-4.647-13-5c-0.768-2.506-5.521-7.3-1-9c2.431,3.204,12.489,11.481,15,5c-2.589-3.411-10.854-1.146-10-8
		c2.406-2.928,5.778-4.889,10-6c0.567-6.275-2.465-9.936,3-11C840.211,498.716,792,508.599,779.044,533z M856.044,539
		c6.384,0.698,11.748,10.526,19,4c-1.454-1.546-5.12-0.881-8-1C865.986,536.316,859.056,532.154,856.044,539z M825.044,542
		c2.333,0,4.667,0,7,0c0-2,0-4,0-6c-3,0-6,0-9,0C823.373,538.338,824.246,540.131,825.044,542z M834.044,562
		c2.506-1.827,6.586-2.081,8-5c-2.179-3.154-8.974-1.692-14-2C828.799,558.578,830.357,561.354,834.044,562z M838.044,564
		c8.874,0.151,19.934,4.041,29,0c-0.802-3.469,1.489-3.844,1-7C860.396,559.849,846.748,557.727,838.044,564z M832.044,583
		c7.137,1.44,15.843,0.345,18-6C842.351,577.307,832.311,575.268,832.044,583z M857.044,578c1.494,7.067,19.193,6.688,24,4
		C876.993,576.768,865.375,575.867,857.044,578z M846.044,611c1.612,2.055,5.014,2.319,9,2c1.424-6.243,7.117-8.217,10-13
		C853.766,598.722,845.75,600.706,846.044,611z M878.044,602c1.273,7.727,7.252,10.748,17,10c-1.017-4.65-6.075-5.259-6-11
		C885.369,601.325,880.191,600.146,878.044,602z M872.044,602c-4.938,2.729-10.316,5.017-13,10c8.831,12.046-11.482,17.647-17,25
		c7.46,1.54,13.953,4.047,23,4c-1.213-5.213,4.121-3.88,8-4c0.313-6.313-9.617-2.384-11-7c3.651-3.573,7.956-0.406,14-1
		c0.878,1.768,3.169,2.919,1,5c4.203-1.13,5.934-4.733,10-6c1.302-8.318-2.011-17.301-8-15c2.064,2.131-1.834,6.783-5,7
		C876.289,614.377,877.134,605.21,872.044,602z M842.044,624c0,1.333,0,2.667,0,4c4.021,2.098,8.654,0.422,9-4
		C849.423,622.497,843.665,622.497,842.044,624z M885.044,633c6.334,1.102,9.05,0.131,10-6
		C889.05,626.339,886.512,629.135,885.044,633z"/>
</g>
<g>
	<path fill-rule="evenodd" clip-rule="evenodd" fill="#94A3BA" d="M98.044,209c4.013-0.786,8.339-5.159,14-6
		c39.622-5.886,27.104,42.339,29,77c-4.667,0-9.333,0-14,0c-3.094-16.863,4.948-45.168-2-58c-4.934-9.112-18.244-6.545-27-1
		c0,19.667,0,39.333,0,59c-5,0-10,0-15,0c-1.001-33.666,2.203-71.536-2-102c4.386-1.948,11.614-1.052,16-3
		C99.372,184.339,97.381,197.996,98.044,209z"/>
	<path fill-rule="evenodd" clip-rule="evenodd" fill="#94A3BA" d="M215.044,175c2.333,33.001,0.334,70.333,1,105
		c-4.667,0-9.333,0-14,0c-0.816-33.85,1.936-71.27-2-102C204.19,176.146,211.037,176.993,215.044,175z"/>
	<path fill-rule="evenodd" clip-rule="evenodd" fill="#94A3BA" d="M27.044,237c0,14.333,0,28.667,0,43c-5,0-10,0-15,0
		c0-34.333,0-68.667,0-103c27.598-2.531,54.58-2.884,58,20C73.877,222.644,54.558,237.226,27.044,237z M27.044,188
		c0,12.333,0,24.667,0,37C63.329,233.636,63.509,175.857,27.044,188z"/>
	<path fill-rule="evenodd" clip-rule="evenodd" fill="#94A3BA" d="M180.044,193c-6.581,6.839-18.526,0.896-19-6
		C159.953,171.135,189.663,173.005,180.044,193z"/>
	<path fill-rule="evenodd" clip-rule="evenodd" fill="#94A3BA" d="M243.044,177c16.245-6.325,17.041,16.903,6,19
		C238.616,197.98,231.597,181.457,243.044,177z"/>
	<path fill-rule="evenodd" clip-rule="evenodd" fill="#94A3BA" d="M1418.043,183c8.725-2.622,11.975,1.608,13,5
		c5.594,18.477-26.01,19.215-20,0C1411.833,185.48,1414.075,184.193,1418.043,183z"/>
	<path fill-rule="evenodd" clip-rule="evenodd" fill="#94A3BA" d="M1716.043,187c4.227,22.297-23.936,17.096-19,1
		C1699.122,181.225,1711.653,179.69,1716.043,187z"/>
	<path fill-rule="evenodd" clip-rule="evenodd" fill="#94A3BA" d="M1793.043,188c3.744-5.002,12.041-6.64,16-2
		C1820.616,199.56,1789.065,212.882,1793.043,188z"/>
	<path fill-rule="evenodd" clip-rule="evenodd" fill="#94A3BA" d="M1826.043,184c6.977-1.424,10.162,2.242,11,6
		c3.059,13.7-16.896,16.748-19,5C1816.668,187.317,1820.194,185.194,1826.043,184z"/>
	<path fill-rule="evenodd" clip-rule="evenodd" fill="#94A3BA" d="M1251.044,186c3.614,22.911-6.402,61.908,4,79
		c5.537,9.097,20.574,11.817,31,4c17.443-13.078,5.273-54.419,9-83c4.668,0,9.334,0,14,0c0.266,44.771,7.625,99.104-33,102
		c-48.281,3.442-40.289-50.747-40-99C1235.88,182.836,1246.45,187.406,1251.044,186z"/>
	<path fill-rule="evenodd" clip-rule="evenodd" fill="#94A3BA" d="M1753.043,196c0,4.667,0,9.333,0,14c6.668,0,13.334,0,20,0
		c0,4,0,8,0,12c-6.332,0-12.666,0-19,0c-1.688,14.026-1.637,34.966,0,49c3.182,5.33,12.162,3.947,16,0c3.092,2.576,4.506,6.827,5,12
		c-6.834,2.885-15.555,5.729-23,4c-20.416-4.742-10.801-40.459-13-64c-1.711-2.289-7.633-0.367-11-1c0-3.333,0-6.667,0-10
		c4.754,0.419,7.213-1.454,11-2c0-4,0-8,0-12C1742.995,196.617,1748.264,196.553,1753.043,196z"/>
	<path fill-rule="evenodd" clip-rule="evenodd" fill="#94A3BA" d="M1878.043,196c0,4.667,0,9.333,0,14c6.668,0,13.334,0,20,0
		c0,4,0,8,0,12c-6.332,0-12.666,0-19,0c-0.758,14.762-3.74,40.404,2,52c6.326,1.768,10.199-0.768,15-3c0.939,4.394,4.223,6.444,4,12
		c-6.824,2.961-15.574,5.625-23,4c-21.031-4.602-12.15-39.642-14-64c-1.711-2.289-7.633-0.367-11-1c0-3,0-6,0-9
		c3.057-1.611,8.123-1.21,11-3c0-4,0-8,0-12C1867.625,196.914,1872.836,196.459,1878.043,196z"/>
	<path fill-rule="evenodd" clip-rule="evenodd" fill="#94A3BA" d="M176.044,203c4.61,21.401,0.709,51.782,2,77
		c-4.333,0-8.667,0-13,0c-0.521-25.479,1.785-53.785-3-75C167.437,205.059,171.154,203.444,176.044,203z"/>
	<path fill-rule="evenodd" clip-rule="evenodd" fill="#94A3BA" d="M252.044,203c4.61,21.401,0.709,51.782,2,77
		c-4.667,0-9.333,0-14,0c-0.521-25.479,1.785-53.785-3-75C242.554,204.843,246.99,203.613,252.044,203z"/>
	<path fill-rule="evenodd" clip-rule="evenodd" fill="#94A3BA" d="M290.044,210c6.843-6.697,25.367-10.725,36-3
		c23.028,16.73,12.763,85.385-34,73c-2.327,8.34-0.338,20.995-1,31c-4.584,0.749-9.841,0.826-14,2c-0.909-35.758,2.067-75.401-2-108
		C281.612,204.956,291.531,199.06,290.044,210z M291.044,221c0,15,0,30,0,45C335.335,285.402,330.495,190.983,291.044,221z"/>
	<path fill-rule="evenodd" clip-rule="evenodd" fill="#94A3BA" d="M364.044,203c4.499-0.833,3.017,4.316,4,7
		c55.771-39.359,66.821,85.429,3,70c-2.327,8.34-0.338,20.995-1,31c-5.208,0.459-10.419,0.914-15,2c-0.792-35.875,1.9-75.234-2-108
		C356.935,204.557,360.955,204.244,364.044,203z M370.044,220c0,15.667,0,31.333,0,47C412.993,282.829,408.834,195.326,370.044,220z
		"/>
	<path fill-rule="evenodd" clip-rule="evenodd" fill="#94A3BA" d="M475.044,206c-0.217,5.45-3.783,7.55-4,13
		c-8.083-2.545-27.198-8.543-29,3c-1.914,12.261,30.171,17.124,34,27c10.123,26.109-23.738,41.372-48,28
		c1.108-4.226,3.185-7.481,4-12c10.19,3.995,31.63,8.341,31-6c-0.691-15.734-44.743-11.184-35-42
		C432.547,202.757,455.508,199.612,475.044,206z"/>
	<path fill-rule="evenodd" clip-rule="evenodd" fill="#94A3BA" d="M1390.043,285c-4.666,0-9.332,0-14,0
		c-2.604-20.73,6.34-53.006-7-63c-10.166-1.167-16.477,1.524-22,5c0,19.333,0,38.667,0,58c-4.666,0-9.332,0-14,0
		c-0.969-24.364,2.494-53.16-3-73c3.93-1.738,9.42-1.913,14-3c1.379,1.289,0.99,4.344,1,7c10.479-6.504,24.844-10.745,35-5
		C1398.918,221.677,1386.342,259.235,1390.043,285z"/>
	<path fill-rule="evenodd" clip-rule="evenodd" fill="#94A3BA" d="M1455.043,208c6.775,17.893,11.191,38.143,18,56
		c7.352-16.982,12.635-36.031,19-54c5,0,10,0,15,0c-9.268,24.731-18.732,49.267-27,75c-5.066-0.067-8.281,1.719-14,1
		c-8.541-24.792-16.875-49.792-25-75C1446.088,210.378,1451.147,209.77,1455.043,208z"/>
	<path fill-rule="evenodd" clip-rule="evenodd" fill="#94A3BA" d="M1570.043,247c-14,0-28,0-42,0c-4.818,22.794,20.539,34.523,39,23
		c0.787,4.547,3.697,6.97,4,12c-10.477,4.401-27.236,7.957-39,3c-35.42-14.925-17.791-92.944,25-75
		C1568.348,214.74,1571,226.458,1570.043,247z M1529.043,236c9.334,0,18.668,0,28,0C1558.778,214.328,1528.458,217.365,1529.043,236
		z"/>
	<path fill-rule="evenodd" clip-rule="evenodd" fill="#94A3BA" d="M1679.043,213c-0.785,4.547-3.697,6.97-4,12
		c-7.982-2.888-28.336-7.168-30,3c-1.744,10.667,28.621,17.388,33,24c15.752,23.786-18.768,45.052-46,32
		c0.609-5.059,2.545-8.788,4-13c8.914,2.829,31.381,8.625,30-6c-1.459-15.479-47.869-14.449-33-45
		C1639.122,207.514,1661.612,204.657,1679.043,213z"/>
	<path fill-rule="evenodd" clip-rule="evenodd" fill="#94A3BA" d="M1841.043,285c-5.686-0.353-8.582,2.084-14,2
		c-1.377-1.289-0.99-4.344-1-7c-13.238,14.014-46.49,8.505-40-19c3.121-13.229,22.246-16.019,38-16c6.438-23.22-16.404-27.714-30-19
		c-1.533-3.799-4.027-6.639-5-11c14.213-7.515,35.48-11.015,45,2C1845.762,233.021,1832.067,265.028,1841.043,285z M1800.043,262
		c-0.572,5.573,0.457,9.543,3,12c8.201,3.001,16.811-0.806,21-5c0-4.667,0-9.333,0-14
		C1813.838,255.127,1805.159,256.782,1800.043,262z"/>
	<path fill-rule="evenodd" clip-rule="evenodd" fill="#94A3BA" d="M1426.043,209c0.668,0,1.334,0,2,0c0,25.333,0,50.667,0,76
		c-5,0-10,0-15,0c-0.311-24.688,0.832-50.832-1-74C1417.227,210.85,1421.983,210.273,1426.043,209z"/>
	<path fill-rule="evenodd" clip-rule="evenodd" fill="#94A3BA" d="M1601.043,217c4.832-1.182,11.291-9.366,22-8
		c0,4.667,0,9.333,0,14c-9.49-0.825-13.871,3.462-20,6c0,19,0,38,0,57c-5,0-10,0-15,0c-0.607-25.059,1.621-52.955-2-75
		C1593.336,211.228,1603.215,204.799,1601.043,217z"/>
	<path fill-rule="evenodd" clip-rule="evenodd" fill="#94A3BA" d="M1712.043,209c4.611,21.401,0.709,51.782,2,77c-5,0-10,0-15,0
		c-0.715-24.952,1.781-53.113-2-75C1702.663,210.952,1707.321,209.943,1712.043,209z"/>
	<path fill-rule="evenodd" clip-rule="evenodd" fill="#94A3BA" d="M1494.043,364c0,10.667,0,21.333,0,32
		c4.725-0.265,9.781-4.575,16-5c41.176-2.81,36.945,71.603,2,78c-9.08,1.662-20.846,0.039-33-3c-0.918-33.081,2.082-70.081-2-100
		C1482.014,364.637,1487.983,364.272,1494.043,364z M1494.043,408c0,16,0,32,0,48C1535.665,471.926,1535.442,385.225,1494.043,408z"
		/>
	<path fill-rule="evenodd" clip-rule="evenodd" fill="#94A3BA" d="M1244.044,369c5.333,0,10.667,0,16,0
		c8.418,27.25,18.756,52.578,28,79c10.994-25.34,19.732-52.935,30-79c5,0,10,0,15,0c1.711,32.955,3.477,65.856,5,99
		c-5.521-0.521-9.426,0.573-14,1c-1.979-22.354-1.301-47.365-3-70c-9.748,21.919-17.77,45.564-26,69c-5.332,0-10.666,0-16,0
		c-7.111-23.889-15.936-46.063-24-69c-2.588,21.745-3.242,45.424-4,69c-4.333,0-8.667,0-13,0
		C1240.027,434.983,1242.542,402.499,1244.044,369z"/>
	<path fill-rule="evenodd" clip-rule="evenodd" fill="#94A3BA" d="M1410.043,467c-4.889,0.443-8.607,2.06-14,2
		c-1.377-1.289-0.99-4.344-1-7c-12.971,16.077-49.799,6.348-39-21c4.684-11.86,21.131-12.433,37-14c6.68-22.23-16.699-26.914-29-18
		c-2.826-2.506-3.172-7.494-6-10c13.936-11.833,44.43-11.757,49,9C1411.042,426.148,1402.891,449.015,1410.043,467z M1369.043,448
		c-0.996,12.305,16.641,12.438,24,4c0-5,0-10,0-15C1382.129,438.771,1369.846,438.083,1369.043,448z"/>
	<path fill-rule="evenodd" clip-rule="evenodd" fill="#94A3BA" d="M1442.043,391c1.498,2.169,1.705,5.629,2,9
		c6.584-3.75,11.371-9.297,22-9c0,4.667,0,9.333,0,14c-9.572-0.238-15.105,3.561-21,7c0,18.667,0,37.333,0,56c-4.666,0-9.332,0-14,0
		c-0.566-24.767,1.549-52.215-2-74C1432.438,392.061,1438.879,393.169,1442.043,391z"/>
	<path fill-rule="evenodd" clip-rule="evenodd" fill="#94A3BA" d="M1571.043,391c5.693,17.947-7.734,61.652,10,66
		c7.707,1.89,14.227-2.617,20-6c-0.096-19.571,0.779-40.111-2-57c3.994-2.006,11.203-0.797,15-3c3.111,23.556-1.869,55.203,4,76
		c-4.889,0.443-8.607,2.06-14,2c-1.377-1.289-0.99-4.344-1-7c-13.83,11.454-40.727,12.097-45-9c-3.627-17.907,3.852-41.499-3-59
		C1559.698,392.32,1566.803,393.094,1571.043,391z"/>
	<path fill-rule="evenodd" clip-rule="evenodd" fill="#94A3BA" d="M1649.043,391c3.316,0.351,1.57,5.764,2,9
		c6.842-3.492,11.652-9.016,22-9c0,4.667,0,9.333,0,14c-8.99,0.01-14.57,3.43-20,7c0,18.667,0,37.333,0,56c-4.666,0-9.332,0-14,0
		c-0.359-24.975,1.242-51.909-2-74C1640.083,392.038,1646.088,393.045,1649.043,391z"/>
	<path fill-rule="evenodd" clip-rule="evenodd" fill="#94A3BA" d="M1749.043,391c0,4.333,0,8.667,0,13c-4.666,0-9.332,0-14,0
		c9.404,21.363-6.676,43.261-31,37c-3.061,1.606-4.93,4.404-6,8c11.516,12.305,45.102-3.214,50,15c8.576,31.882-49.811,52.259-65,29
		c-4.951-7.584-4.277-22.703,6-31c-7.684-6.898-2.635-20.92,4-25c-18.096-15.319-8.535-50.882,24-46
		C1725.645,392.291,1737.084,394.82,1749.043,391z M1718.043,430c11.857-5.87,3.9-25.126,0-27c-2.74-1.316-6.857-1.147-11,0
		C1688.247,408.206,1699.292,439.284,1718.043,430z M1699.043,466c-4.715,2.016-6.518,9.995-6,14c2.377,18.392,43.789,9.555,43-9
		C1729.713,465.688,1707.836,462.241,1699.043,466z"/>
</g>
</svg>
